# AST/ASF file generated using VICON BodyLanguage
# -----------------------------------------------
:version 1.10
:name VICON
:units
  mass 1.0
  length 0.45
  angle deg
:documentation
   .ast/.asf automatically generated from VICON data using
   VICON BodyBuilder and BodyLanguage model FoxedUp or BRILLIANT.MOD
:root
   order TX TY TZ RX RY RZ
   axis XYZ
   position 0 0 0  
   orientation 0 -0 0 
:bonedata
  begin
     id 1 
     name lhipjoint
     direction 0.500677 -0.737119 0.453848 
     length 2.34727 
     axis 0 -0 0  XYZ
  end
  begin
     id 2 
     name lfemur
     direction 0.34202 -0.939693 0  
     length 7.53653  
     axis 0 -0 20  XYZ
    dof rx ry rz
    limits (-160.0 20.0)
           (-70.0 70.0)
           (-60.0 70.0)
  end
  begin
     id 3 
     name ltibia
     direction 0.34202 -0.939693 0   
     length 6.85572   
     axis 0 -0 20   XYZ
    dof rx
    limits (-10.0 170.0)
  end
  begin
     id 4 
     name lfoot
     direction 0.155313 -0.426718 0.890949   
     length 2.18324   
     axis -90 -1.13533e-015 20   XYZ
    dof rx rz
    limits (-45.0 90.0)
           (-70.0 20.0)
  end
  begin
     id 5 
     name ltoes
     direction 1.53474e-011 -4.21647e-011 1   
     length 1.06748   
     axis -90 -1.13533e-015 20   XYZ
    dof rx
    limits (-90.0 20.0)
  end
  begin
     id 6 
     name rhipjoint
     direction -0.632471 -0.659587 0.406111   
     length 2.62319  
     axis 0 -0 0  XYZ 
  end
  begin
     id 7 
     name rfemur
     direction -0.34202 -0.939693 0   
     length 7.21735   
     axis 0 -0 -20   XYZ
    dof rx ry rz
    limits (-160.0 20.0)
           (-70.0 70.0)
           (-70.0 60.0)
  end
  begin
     id 8 
     name rtibia
     direction -0.34202 -0.939693 0   
     length 7.02558   
     axis 0 -0 -20   XYZ
    dof rx
    limits (-10.0 170.0)
 end
 begin
     id 9 
     name rfoot
     direction -0.16057 -0.441164 0.882945   
     length 2.10014  
     axis -90 1.13533e-015 -20   XYZ
    dof rx rz
    limits (-45.0 90.0)
           (-20.0 70.0)
  end
  begin
     id 10 
     name rtoes
     direction -1.53553e-011 -4.2192e-011 1   
     length 1.02554   
     axis -90 1.13533e-015 -20   XYZ
    dof rx
    limits (-90.0 20.0)
  end
  begin
     id 11 
     name lowerback
     direction 0.0401429 0.998861 -0.0258085   
     length 1.80848   
     axis 0 -0 0   XYZ
    dof rx ry rz
    limits (-20.0 45.0)
           (-30.0 30.0)
           (-30.0 30.0)
  end
  begin
     id 12 
     name upperback
     direction -0.0130978 0.999914 -0.000352645   
     length 1.8116   
     axis 0 -0 0   XYZ
    dof rx ry rz
    limits (-20.0 45.0)
           (-30.0 30.0)
           (-30.0 30.0)
  end
  begin
     id 13 
     name thorax
     direction -0.0300198 0.999453 0.0138573   
     length 1.81778   
     axis 0 -0 0   XYZ
    dof rx ry rz
    limits (-20.0 45.0)
           (-30.0 30.0)
           (-30.0 30.0)
  end
  begin
     id 14 
     name lowerneck
     direction -0.0401726 0.999191 -0.00173647   
     length 2.10594   
     axis 0 -0 0   XYZ
    dof rx ry rz
    limits (-20.0 45.0)
           (-30.0 30.0)
           (-30.0 30.0)
  end
  begin
     id 15 
     name upperneck
     direction 0.0119835 0.998501 0.0534085   
     length 2.07325   
     axis 0 -0 0   XYZ
    dof rx ry rz
    limits (-20.0 45.0)
           (-30.0 30.0)
           (-30.0 30.0)
  end
  begin
     id 16
     name head
     direction 0.00628309 0.999826 0.0175921  
     length 2.15096  
     axis 0 -0 0   XYZ
    dof rx ry rz
    limits (-20.0 45.0)
           (-30.0 30.0)
           (-30.0 30.0)
  end
  begin
     id 17 
     name lclavicle
     direction 0.895501 0.429681 -0.115981  
     length 4.18092  
     axis 0 -0 0   XYZ
    dof ry rz
    limits (-20.0 10.0)
           (0.0 20.0)
  end
  begin
     id 18 
     name lhumerus
     direction 1 -4.48961e-011 -3.38433e-028   
     length 5.77237   
     axis 180 -30 -90   XYZ
    dof rx ry rz
    limits (-60.0 90.0)
           (-90.0 90.0)
           (-90.0 90.0)
  end
  begin
     id 19
     name lradius
     direction 1 -4.4901e-011 1.11983e-026   
     length 2.91878   
     axis 180 -30 -90   XYZ
    dof rx
    limits (-10.0 170.0)
  end
  begin
     id 20
     name lwrist
     direction 1 -4.48934e-011 1.88176e-026   
     length 1.45939   
     axis -1.23311e-014 90 90   XYZ
    dof ry
    limits (-180.0 0.0)
 end
  begin
     id 21 
     name lhand
     direction 1 -4.4895e-011 3.76352e-026   
     length 1.06566   
     axis -2.40147e-014 90 90   XYZ
    dof rx rz
    limits (-90.0 90.0)
           (-45.0 45.0)
  end
  begin
     id 22 
     name lfingers
     direction 1 -4.49005e-011 7.52705e-026   
     length 0.859162   
     axis -4.80295e-014 90 90   XYZ
    dof rx
    limits (0.0 90.0)
  end
  begin
     id 23
     name lthumb
     direction 0.707107 -6.34885e-011 0.707107   
     length 1.23359   
     axis -90 45 -9.86935e-015   XYZ
    dof rx rz
    limits (-45.0 45.0)
           (-45.0 45.0)
  end
  begin
     id 24 
     name rclavicle
     direction -0.91006 0.40451 -0.0903492   
     length 4.23293  
     axis 0 -0 0   XYZ 
    dof ry rz
    limits (-10.0 20.0)
           (-20.0 0.0)
  end
  begin
     id 25 
     name rhumerus
     direction -1 -4.4897e-011 1.7415e-027  
     length 5.49854   
     axis 180 30 90   XYZ
    dof rx ry rz
    limits (-90.0 60.0)
           (-90.0 90.0)
           (-90.0 90.0)
  end
  begin
     id 26 
     name rradius
     direction -1 -4.48963e-011 1.21259e-026   
     length 3.1186   
     axis 180 30 90   XYZ
    dof rx
    limits (-10.0 170.0)
  end
  begin
     id 27 
     name rwrist
     direction -1 -4.48967e-011 1.88176e-026   
     length 1.5593   
     axis -1.23311e-014 -90 -90   XYZ
    dof ry
    limits (-180.0 0.0)
  end
  begin
     id 28
     name rhand
     direction -1 -4.4895e-011 3.76352e-026   
     length 0.71207   
     axis -2.40147e-014 -90 -90   XYZ
    dof rx rz
    limits (-90.0 90.0)
           (-45.0 45.0)
  end
  begin
     id 29
     name rfingers
     direction -1 -4.49005e-011 7.52705e-026   
     length 0.574089   
     axis -4.80295e-014 -90 -90   XYZ
    dof rx
    limits (0.0 90.0)
  end
  begin
     id 30
     name rthumb
     direction -0.707107 -6.34982e-011 0.707107   
     length 0.824281   
     axis -90 -45 9.86935e-015   XYZ
    dof rx rz
    limits (-45.0 45.0)
           (-45.0 45.0)
  end
:hierarchy
  begin
    root lhipjoint rhipjoint lowerback
    lhipjoint lfemur
    lfemur ltibia
    ltibia lfoot
    lfoot ltoes
    rhipjoint rfemur
    rfemur rtibia
    rtibia rfoot
    rfoot rtoes
    lowerback upperback
    upperback thorax
    thorax lowerneck lclavicle rclavicle
    lowerneck upperneck
    upperneck head
    lclavicle lhumerus
    lhumerus lradius
    lradius lwrist
    lwrist lhand lthumb
    lhand lfingers
    rclavicle rhumerus
    rhumerus rradius
    rradius rwrist
    rwrist rhand rthumb
    rhand rfingers
  end

#!OML:ASF C:\ViconDB\ViconDB\414\Spring2016\042216\male.ASF
:FULLY-SPECIFIED
:DEGREES
578
root 19.7468 17.6483 10.9357 566.666 72.993 926.748
lowerback 0.730817 0.529795 10.2287
upperback -0.662679 0.834804 -0.750881
thorax -0.949169 0.3458 -6.54725
lowerneck -1.93212 9.3549 -1.41058
upperneck -7.45227 12.3511 -6.40496
head -1.67897 6.39518 -1.85905
rclavicle -3.26267e-014 1.19271e-014
rhumerus -11.6249 4.45289 -90.9274
rradius 28.1001
rwrist 30.8141
rhand 11.3918 -19.7705
rfingers 7.12502
rthumb 36.4452 -45.9764
lclavicle -3.26267e-014 1.19271e-014
lhumerus -46.5061 32.9917 64.2963
lradius 26.6184
lwrist -25.6631
lhand -8.90591 15.0998
lfingers 7.12502
lthumb 17.037 44.3727
rfemur 17.2865 6.59845 31.9435
rtibia -2.54444e-014
rfoot -6.37318 -4.37744
rtoes -16.4135
lfemur -31.9614 -12.5241 -2.96229
ltibia 28.7422
lfoot -18.2222 12.4336
ltoes -9.69268
579
root 19.8581 17.6431 10.8976 568.704 73.8312 928.591
lowerback 0.671018 0.571677 10.0858
upperback -0.750315 0.884927 -0.830502
thorax -0.998196 0.365212 -6.55082
lowerneck -1.95161 9.37087 -1.54437
upperneck -7.33711 12.3738 -6.37507
head -1.64807 6.40408 -1.82294
rclavicle 3.43109e-014 0
rhumerus -11.7708 5.95261 -91.6775
rradius 28.5804
rwrist 29.9089
rhand 11.4094 -19.9218
rfingers 7.12502
rthumb 36.4618 -46.1235
lclavicle 3.43109e-014 0
lhumerus -47.722 33.5582 63.1113
lradius 26.7565
lwrist -26.1313
lhand -8.3942 15.2054
lfingers 7.12502
lthumb 17.5295 44.4351
rfemur 17.4093 6.82791 31.8089
rtibia -7.63333e-014
rfoot -5.98801 -3.50702
rtoes -16.4002
lfemur -31.9062 -13.0159 -2.31131
ltibia 28.5588
lfoot -17.7509 12.7417
ltoes -9.28295
580
root 19.9708 17.6218 10.8548 571.869 74.3618 931.682
lowerback 0.661349 0.54299 10.3896
upperback -0.825304 0.854004 -0.842238
thorax -1.07386 0.34062 -6.73608
lowerneck -1.89689 9.34341 -1.53128
upperneck -7.32016 12.3302 -6.38311
head -1.65177 6.38049 -1.82993
rclavicle 2.12109e-014 -1.03368e-014
rhumerus -11.9576 7.57457 -92.4747
rradius 29.0188
rwrist 29.0839
rhand 11.3173 -19.8521
rfingers 7.12502
rthumb 36.3747 -46.0757
lclavicle 2.12109e-014 -1.03368e-014
lhumerus -48.9548 34.2985 61.7362
lradius 26.5786
lwrist -26.5689
lhand -8.68817 15.2839
lfingers 7.12502
lthumb 17.2466 44.5386
rfemur 17.607 6.9419 32.0687
rtibia 3.18055e-014
rfoot -5.68368 -2.6571
rtoes -16.0982
lfemur -31.7423 -13.074 -1.54022
ltibia 28.4271
lfoot -17.2605 12.642
ltoes -9.72334
581
root 20.0888 17.6 10.8141 574.825 75.1746 934.539
lowerback 0.55294 0.61395 10.3215
upperback -0.832011 0.934466 -0.888851
thorax -1.0042 0.384422 -6.74605
lowerneck -1.75644 9.1377 -1.82293
upperneck -7.5187 12.0473 -6.22449
head -1.77509 6.25019 -1.75431
rclavicle 1.08105e-014 1.51076e-014
rhumerus -12.0251 8.79711 -93.2079
rradius 29.3485
rwrist 28.5884
rhand 11.4632 -19.7253
rfingers 7.12502
rthumb 36.5128 -45.9142
lclavicle 1.08105e-014 1.51076e-014
lhumerus -50.0935 34.6387 60.848
lradius 26.9243
lwrist -26.8579
lhand -7.9393 15.5051
lfingers 7.12502
lthumb 17.9672 44.6952
rfemur 17.8386 7.25817 32.0555
rtibia -3.18055e-015
rfoot -5.26886 -1.78724
rtoes -16.1343
lfemur -31.4365 -13.0915 -1.02602
ltibia 28.2926
lfoot -16.8107 12.879
ltoes -9.4234
582
root 20.2039 17.5774 10.768 578.654 75.6304 938.196
lowerback 0.318562 0.591897 10.6145
upperback -0.845667 0.882294 -0.885565
thorax -0.893319 0.361886 -6.9056
lowerneck -1.71814 9.12212 -1.76279
upperneck -7.58304 12.0147 -6.3484
head -1.79207 6.23655 -1.80669
rclavicle -2.79541e-015 -2.78299e-014
rhumerus -12.1771 10.979 -93.9527
rradius 29.9014
rwrist 27.2933
rhand 11.4589 -19.9707
rfingers 7.12502
rthumb 36.5087 -46.1606
lclavicle -2.79541e-015 -2.78299e-014
lhumerus -50.9657 35.4964 59.5573
lradius 26.4515
lwrist -27.4561
lhand -8.03476 15.588
lfingers 7.12502
lthumb 17.8754 44.7865
rfemur 17.9537 7.42868 32.2852
rtibia 1.27222e-014
rfoot -4.96937 -1.00714
rtoes -15.865
lfemur -31.2625 -13.0723 -0.281593
ltibia 28.207
lfoot -16.3257 12.767
ltoes -9.60521
583
root 20.3231 17.5513 10.7135 582.151 76.1377 941.62
lowerback 0.257981 0.525694 10.784
upperback -0.905115 0.791895 -0.901667
thorax -0.937788 0.310559 -7.01847
lowerneck -1.63266 9.16512 -1.72513
upperneck -7.53728 12.0619 -6.43088
head -1.78348 6.25866 -1.84096
rclavicle -5.37961e-015 -2.22639e-014
rhumerus -12.4182 12.0465 -94.7476
rradius 30.1979
rwrist 27.3898
rhand 11.7321 -19.4995
rfingers 7.12502
rthumb 36.7673 -45.6238
lclavicle -5.37961e-015 -2.22639e-014
lhumerus -51.7219 34.918 59.6409
lradius 27.0772
lwrist -26.0338
lhand -7.83776 15.9889
lfingers 7.12502
lthumb 18.0649 45.17
rfemur 18.2307 7.5959 32.3291
rtibia -3.81667e-014
rfoot -4.65891 -0.157977
rtoes -15.8316
lfemur -30.846 -12.9493 0.111413
ltibia 28.1542
lfoot -16.0505 12.7208
ltoes -10.134
